<svg width="18" height="18" viewBox="0 0 76 74" fill="none" xmlns="http://www.w3.org/2000/svg">
<path fill-rule="evenodd" clip-rule="evenodd" d="M37.5951 -5.79973e-07C16.8371 -2.59742e-07 2.59743e-07 16.8371 5.79973e-07 37.5951C8.36157e-07 54.2016 10.8403 68.2709 25.6016 73.3451C27.4467 73.5757 28.1387 72.4225 28.1387 71.4999C28.1387 70.5773 28.1387 68.2709 28.1387 65.0419C17.7597 67.3483 15.4532 59.9677 15.4532 59.9677C13.8387 55.5854 11.3016 54.4322 11.3016 54.4322C7.84193 52.1258 11.5322 52.1258 11.5322 52.1258C15.2226 52.3564 17.2984 56.0467 17.2984 56.0467C20.758 61.8128 26.0629 60.1983 28.1387 59.2757C28.3693 56.7387 29.5225 55.1241 30.4451 54.2016C22.1419 53.279 13.3774 50.0499 13.3774 35.5193C13.3774 31.3677 14.7613 28.1387 17.2984 25.3709C17.0677 24.679 15.6839 20.758 17.7597 15.6839C17.7597 15.6839 20.9887 14.7613 28.1387 19.6048C31.1371 18.6822 34.3661 18.4516 37.5951 18.4516C40.8241 18.4516 44.0532 18.9129 47.0516 19.6048C54.2015 14.7613 57.4306 15.6839 57.4306 15.6839C59.5064 20.758 58.1225 24.679 57.8919 25.6016C60.1983 28.1387 61.8128 31.5984 61.8128 35.75C61.8128 50.2806 53.0483 53.279 44.7451 54.2016C46.129 55.3548 47.2822 57.6612 47.2822 61.1209C47.2822 66.1951 47.2822 70.1161 47.2822 71.4999C47.2822 72.4225 47.9741 73.5757 49.8193 73.3451C64.8112 68.2709 75.4209 54.2016 75.4209 37.5951C75.1902 16.8371 58.3532 -9.00203e-07 37.5951 -5.79973e-07Z" fill="white"/>
</svg>
